<svg xmlns="http://www.w3.org/2000/svg" xmlns:xlink="http://www.w3.org/1999/xlink" width="243" zoomAndPan="magnify" viewBox="0 0 182.25 80.249996" height="107" preserveAspectRatio="xMidYMid meet" version="1.0"><defs><g/><clipPath id="000737f20a"><path d="M 23 14 L 61 14 L 61 55 L 23 55 Z M 23 14 " clip-rule="nonzero"/></clipPath><clipPath id="ca65be5d8d"><path d="M 25.578125 12.957031 L 62.5 17.109375 L 58.097656 56.246094 L 21.179688 52.09375 Z M 25.578125 12.957031 " clip-rule="nonzero"/></clipPath><clipPath id="7d8437a1a1"><path d="M 62.8125 17.144531 L 25.890625 12.992188 L 21.488281 52.128906 L 58.410156 56.28125 Z M 62.8125 17.144531 " clip-rule="nonzero"/></clipPath><clipPath id="61f3b1c1e3"><path d="M 29 33 L 35 33 L 35 39 L 29 39 Z M 29 33 " clip-rule="nonzero"/></clipPath><clipPath id="059dcba8f0"><path d="M 25.578125 12.957031 L 62.5 17.109375 L 58.097656 56.246094 L 21.179688 52.09375 Z M 25.578125 12.957031 " clip-rule="nonzero"/></clipPath><clipPath id="1851150fba"><path d="M 62.8125 17.144531 L 25.890625 12.992188 L 21.488281 52.128906 L 58.410156 56.28125 Z M 62.8125 17.144531 " clip-rule="nonzero"/></clipPath><clipPath id="e4631952f4"><path d="M 83 78 L 91 78 L 91 79.507812 L 83 79.507812 Z M 83 78 " clip-rule="nonzero"/></clipPath></defs><g clip-path="url(#000737f20a)"><g clip-path="url(#ca65be5d8d)"><g clip-path="url(#7d8437a1a1)"><path fill="#13e8af" d="M 45.722656 42.578125 C 46.921875 41.625 48.136719 40.648438 49.234375 39.460938 C 49.78125 38.863281 50.292969 38.207031 50.695312 37.460938 C 51.089844 36.714844 51.347656 35.824219 51.25 34.992188 C 51.074219 35.808594 50.695312 36.488281 50.214844 37.066406 C 49.742188 37.65625 49.1875 38.15625 48.617188 38.644531 C 47.472656 39.613281 46.242188 40.492188 45.03125 41.449219 C 43.828125 42.402344 42.621094 43.414062 41.554688 44.652344 C 41.03125 45.269531 40.546875 45.957031 40.171875 46.71875 C 39.808594 47.480469 39.554688 48.34375 39.605469 49.175781 C 39.832031 48.378906 40.207031 47.6875 40.667969 47.089844 C 41.121094 46.476562 41.65625 45.949219 42.203125 45.4375 C 43.3125 44.429688 44.519531 43.53125 45.722656 42.578125 Z M 48.933594 30.902344 C 48.859375 30.1875 48.703125 29.488281 48.449219 28.820312 C 48.453125 29.535156 48.46875 30.230469 48.460938 30.921875 C 48.445312 31.613281 48.410156 32.300781 48.316406 32.972656 C 48.234375 33.648438 48.089844 34.3125 47.871094 34.953125 C 47.640625 35.589844 47.332031 36.199219 46.898438 36.765625 C 47.511719 36.390625 47.984375 35.792969 48.308594 35.140625 C 48.640625 34.484375 48.824219 33.769531 48.925781 33.054688 C 49.011719 32.335938 49.019531 31.613281 48.933594 30.902344 Z M 46.125 29.367188 C 46.042969 29.074219 45.976562 28.777344 45.886719 28.492188 C 45.78125 28.207031 45.664062 27.933594 45.550781 27.660156 C 45.484375 27.523438 45.433594 27.382812 45.363281 27.253906 C 45.292969 27.125 45.222656 26.996094 45.144531 26.867188 C 45.074219 26.75 45 26.636719 44.929688 26.515625 C 44.769531 26.195312 44.59375 25.886719 44.390625 25.601562 C 44.671875 26.375 44.886719 27.164062 44.9375 27.957031 C 45.003906 28.742188 44.894531 29.523438 44.675781 30.269531 C 44.449219 31.011719 44.128906 31.730469 43.730469 32.417969 C 43.34375 33.113281 42.914062 33.796875 42.460938 34.472656 C 42.023438 35.160156 41.566406 35.847656 41.136719 36.558594 C 40.722656 37.273438 40.304688 38.003906 39.976562 38.777344 C 39.292969 40.304688 38.878906 41.988281 38.964844 43.648438 C 39.304688 42.023438 39.898438 40.527344 40.679688 39.125 C 41.078125 38.425781 41.488281 37.734375 41.945312 37.0625 L 43.304688 35.019531 C 43.746094 34.324219 44.191406 33.617188 44.570312 32.863281 C 44.902344 32.179688 45.199219 31.457031 45.375 30.699219 C 45.34375 31.390625 45.234375 32.070312 45.039062 32.738281 C 44.746094 33.796875 44.234375 34.839844 43.894531 35.996094 C 43.539062 37.132812 43.410156 38.410156 43.757812 39.546875 C 43.832031 38.363281 44.167969 37.292969 44.632812 36.265625 C 45.089844 35.234375 45.667969 34.199219 46 33.015625 C 46.347656 31.839844 46.394531 30.550781 46.125 29.367188 Z M 35.546875 25.453125 L 35.460938 26.214844 C 36.003906 25.96875 39.371094 25.546875 39.371094 25.546875 Z M 44.1875 15.050781 C 54.429688 16.203125 61.824219 25.472656 60.671875 35.714844 C 59.519531 45.960938 50.25 53.355469 40.007812 52.203125 C 39.96875 52.199219 39.925781 52.191406 39.886719 52.1875 C 39.734375 52.808594 39.785156 53.433594 40.023438 54.117188 C 36.433594 51.238281 36.730469 40.347656 38.859375 38.371094 C 36.03125 39.703125 34.648438 45.113281 35.128906 47.949219 C 31.796875 41.597656 37.144531 36.222656 39.5625 34.429688 C 41.976562 32.636719 42.796875 28.09375 41.363281 26.183594 C 41.355469 28.550781 35.953125 28.046875 35.09375 30.164062 C 34.238281 32.285156 36.3125 33.550781 34.074219 33.761719 C 31.949219 33.960938 29.863281 32.179688 30.800781 30.363281 C 30.878906 30.207031 30.800781 30.015625 30.628906 29.976562 C 30.476562 29.9375 30.296875 29.894531 30.125 29.855469 C 29.902344 29.804688 29.820312 29.53125 29.984375 29.371094 C 30.914062 28.453125 33.300781 26.144531 34.460938 25.351562 C 35.925781 24.355469 34.980469 23.800781 38.015625 22.273438 C 38.28125 20.953125 40.855469 20.566406 43.675781 20.671875 C 43.269531 21.027344 42.890625 21.40625 42.796875 21.621094 C 43.574219 20.890625 44.71875 20.351562 45.667969 19.996094 C 46.621094 19.632812 47.375 19.460938 47.375 19.460938 C 47.375 19.460938 47.902344 21.042969 47.765625 22.152344 L 47.78125 22.183594 L 47.773438 22.121094 C 47.839844 21.796875 47.859375 21.4375 47.859375 21.136719 C 49.132812 21.382812 50.199219 21.691406 50.800781 22.007812 C 50.800781 22.007812 48.9375 22.546875 48.691406 22.929688 C 48.691406 22.929688 53.519531 24.453125 54.207031 28.398438 C 54.207031 28.398438 51.597656 26.867188 50.800781 27.085938 C 50.800781 27.085938 58.382812 36.628906 50.054688 42.890625 C 44.972656 46.707031 41.957031 48.886719 40.625 50.710938 C 49.847656 51.511719 58.109375 44.792969 59.148438 35.539062 C 60.207031 26.140625 53.417969 17.628906 44.019531 16.570312 C 34.613281 15.515625 26.105469 22.304688 25.050781 31.703125 C 24.128906 39.878906 29.140625 47.375 36.644531 49.890625 C 36.769531 50.476562 36.917969 51.070312 37.070312 51.628906 C 28.390625 49.210938 22.488281 40.765625 23.523438 31.53125 C 24.671875 21.296875 33.941406 13.898438 44.1875 15.050781 Z M 44.1875 15.050781 " fill-opacity="1" fill-rule="nonzero"/></g></g></g><g clip-path="url(#61f3b1c1e3)"><g clip-path="url(#059dcba8f0)"><g clip-path="url(#1851150fba)"><path fill="#13e8af" d="M 30.308594 33.167969 C 30.804688 33.070312 31.496094 33.542969 32.171875 33.976562 C 33.417969 34.78125 34.46875 36.070312 33.945312 36.4375 C 33.640625 36.652344 32.664062 36.78125 31.773438 36.753906 C 31.753906 36.761719 31.738281 36.769531 31.714844 36.773438 C 30.410156 37.003906 30.609375 38.316406 30.609375 38.316406 C 30.164062 37.777344 29.886719 36.339844 29.867188 35.015625 C 29.863281 34.882812 29.863281 34.75 29.871094 34.621094 L 29.871094 34.597656 C 29.902344 33.878906 30.070312 33.21875 30.308594 33.167969 Z M 30.308594 33.167969 " fill-opacity="1" fill-rule="nonzero"/></g></g></g><g fill="#ffffff" fill-opacity="1"><g transform="translate(62.81901, 42.376893)"><g><path d="M 7.070312 0 L 7.070312 -8.652344 L 11.441406 -8.652344 C 20.222656 -8.652344 20.253906 -22.632812 11.441406 -22.632812 L 2.535156 -22.632812 L 2.535156 0 Z M 7.070312 -13.058594 L 7.070312 -18.132812 L 11.0625 -18.132812 C 14.105469 -18.132812 14.105469 -13.058594 11.0625 -13.058594 Z M 7.070312 -13.058594 "/></g></g></g><g fill="#ffffff" fill-opacity="1"><g transform="translate(60.050648, 52.485807)"><g/></g></g><g fill="#ffffff" fill-opacity="1"><g transform="translate(65.101104, 52.485807)"><g><path d="M 0.5625 -3.703125 C 0.5625 -4.097656 0.609375 -4.472656 0.703125 -4.828125 C 0.804688 -5.179688 0.945312 -5.503906 1.125 -5.796875 C 1.3125 -6.097656 1.53125 -6.363281 1.78125 -6.59375 C 2.039062 -6.832031 2.320312 -7.035156 2.625 -7.203125 C 2.9375 -7.367188 3.269531 -7.492188 3.625 -7.578125 C 3.976562 -7.671875 4.347656 -7.71875 4.734375 -7.71875 C 5.066406 -7.71875 5.382812 -7.6875 5.6875 -7.625 C 5.988281 -7.570312 6.300781 -7.503906 6.625 -7.421875 C 6.675781 -7.410156 6.726562 -7.394531 6.78125 -7.375 C 6.84375 -7.351562 6.898438 -7.332031 6.953125 -7.3125 C 7.003906 -7.289062 7.050781 -7.273438 7.09375 -7.265625 C 7.132812 -7.253906 7.164062 -7.25 7.1875 -7.25 C 7.195312 -7.25 7.222656 -7.253906 7.265625 -7.265625 C 7.304688 -7.273438 7.332031 -7.28125 7.34375 -7.28125 L 7.59375 -7.28125 C 7.632812 -7.28125 7.65625 -7.25 7.65625 -7.1875 L 7.65625 -5.46875 C 7.65625 -5.4375 7.644531 -5.414062 7.625 -5.40625 C 7.613281 -5.40625 7.582031 -5.40625 7.53125 -5.40625 C 7.519531 -5.40625 7.488281 -5.40625 7.4375 -5.40625 C 7.394531 -5.40625 7.367188 -5.414062 7.359375 -5.4375 C 7.359375 -5.445312 7.347656 -5.46875 7.328125 -5.5 C 7.304688 -5.53125 7.285156 -5.5625 7.265625 -5.59375 C 7.242188 -5.632812 7.222656 -5.671875 7.203125 -5.703125 C 7.179688 -5.734375 7.164062 -5.753906 7.15625 -5.765625 C 7.019531 -6.023438 6.875 -6.242188 6.71875 -6.421875 C 6.5625 -6.609375 6.382812 -6.757812 6.1875 -6.875 C 6 -6.988281 5.789062 -7.070312 5.5625 -7.125 C 5.332031 -7.175781 5.085938 -7.203125 4.828125 -7.203125 C 4.484375 -7.203125 4.179688 -7.160156 3.921875 -7.078125 C 3.660156 -7.003906 3.429688 -6.894531 3.234375 -6.75 C 3.046875 -6.613281 2.882812 -6.441406 2.75 -6.234375 C 2.613281 -6.035156 2.503906 -5.816406 2.421875 -5.578125 C 2.335938 -5.347656 2.273438 -5.097656 2.234375 -4.828125 C 2.203125 -4.566406 2.1875 -4.296875 2.1875 -4.015625 C 2.1875 -3.710938 2.207031 -3.410156 2.25 -3.109375 C 2.289062 -2.816406 2.359375 -2.535156 2.453125 -2.265625 C 2.554688 -1.992188 2.679688 -1.742188 2.828125 -1.515625 C 2.984375 -1.296875 3.164062 -1.097656 3.375 -0.921875 C 3.59375 -0.753906 3.84375 -0.625 4.125 -0.53125 C 4.40625 -0.4375 4.722656 -0.390625 5.078125 -0.390625 C 5.378906 -0.390625 5.660156 -0.429688 5.921875 -0.515625 C 6.179688 -0.609375 6.421875 -0.734375 6.640625 -0.890625 C 6.859375 -1.046875 7.050781 -1.222656 7.21875 -1.421875 C 7.382812 -1.617188 7.53125 -1.828125 7.65625 -2.046875 C 7.65625 -2.066406 7.660156 -2.078125 7.671875 -2.078125 C 7.679688 -2.078125 7.695312 -2.078125 7.71875 -2.078125 L 7.984375 -2.078125 C 7.992188 -2.078125 8.003906 -2.070312 8.015625 -2.0625 C 8.035156 -2.0625 8.046875 -2.046875 8.046875 -2.015625 C 8.046875 -2.003906 8.035156 -1.972656 8.015625 -1.921875 C 8.003906 -1.878906 7.988281 -1.84375 7.96875 -1.8125 L 7.234375 -0.203125 C 7.222656 -0.191406 7.207031 -0.179688 7.1875 -0.171875 C 7.175781 -0.171875 7.164062 -0.171875 7.15625 -0.171875 C 7.070312 -0.171875 7.015625 -0.175781 6.984375 -0.1875 C 6.953125 -0.195312 6.914062 -0.203125 6.875 -0.203125 C 6.769531 -0.203125 6.628906 -0.179688 6.453125 -0.140625 C 6.273438 -0.109375 6.082031 -0.0703125 5.875 -0.03125 C 5.675781 0.0078125 5.472656 0.046875 5.265625 0.078125 C 5.066406 0.117188 4.882812 0.140625 4.71875 0.140625 C 4.34375 0.140625 3.976562 0.0976562 3.625 0.015625 C 3.28125 -0.0546875 2.953125 -0.171875 2.640625 -0.328125 C 2.335938 -0.484375 2.054688 -0.671875 1.796875 -0.890625 C 1.546875 -1.117188 1.328125 -1.375 1.140625 -1.65625 C 0.953125 -1.945312 0.804688 -2.257812 0.703125 -2.59375 C 0.609375 -2.9375 0.5625 -3.304688 0.5625 -3.703125 Z M 0.5625 -3.703125 "/></g></g></g><g fill="#ffffff" fill-opacity="1"><g transform="translate(75.664972, 52.485807)"><g><path d="M 4.796875 0.140625 C 4.671875 0.140625 4.515625 0.128906 4.328125 0.109375 C 4.140625 0.0859375 3.9375 0.0507812 3.71875 0 C 3.5 -0.0625 3.269531 -0.140625 3.03125 -0.234375 C 2.789062 -0.328125 2.550781 -0.441406 2.3125 -0.578125 C 2.082031 -0.722656 1.863281 -0.894531 1.65625 -1.09375 C 1.445312 -1.289062 1.257812 -1.519531 1.09375 -1.78125 C 0.9375 -2.039062 0.8125 -2.335938 0.71875 -2.671875 C 0.625 -3.003906 0.578125 -3.378906 0.578125 -3.796875 C 0.578125 -4.160156 0.628906 -4.507812 0.734375 -4.84375 C 0.835938 -5.1875 0.984375 -5.503906 1.171875 -5.796875 C 1.359375 -6.085938 1.582031 -6.347656 1.84375 -6.578125 C 2.113281 -6.816406 2.414062 -7.019531 2.75 -7.1875 C 3.082031 -7.351562 3.441406 -7.484375 3.828125 -7.578125 C 4.210938 -7.671875 4.617188 -7.71875 5.046875 -7.71875 C 5.410156 -7.71875 5.765625 -7.671875 6.109375 -7.578125 C 6.453125 -7.492188 6.773438 -7.367188 7.078125 -7.203125 C 7.378906 -7.035156 7.65625 -6.835938 7.90625 -6.609375 C 8.15625 -6.378906 8.367188 -6.117188 8.546875 -5.828125 C 8.734375 -5.546875 8.875 -5.238281 8.96875 -4.90625 C 9.070312 -4.582031 9.125 -4.242188 9.125 -3.890625 C 9.125 -3.554688 9.078125 -3.226562 8.984375 -2.90625 C 8.890625 -2.582031 8.75 -2.269531 8.5625 -1.96875 C 8.382812 -1.664062 8.164062 -1.382812 7.90625 -1.125 C 7.65625 -0.875 7.367188 -0.65625 7.046875 -0.46875 C 6.722656 -0.28125 6.367188 -0.128906 5.984375 -0.015625 C 5.609375 0.0859375 5.210938 0.140625 4.796875 0.140625 Z M 2.140625 -4 C 2.140625 -3.707031 2.171875 -3.414062 2.234375 -3.125 C 2.296875 -2.84375 2.382812 -2.566406 2.5 -2.296875 C 2.613281 -2.035156 2.75 -1.785156 2.90625 -1.546875 C 3.070312 -1.316406 3.257812 -1.113281 3.46875 -0.9375 C 3.6875 -0.769531 3.925781 -0.640625 4.1875 -0.546875 C 4.445312 -0.453125 4.734375 -0.40625 5.046875 -0.40625 C 5.472656 -0.40625 5.84375 -0.492188 6.15625 -0.671875 C 6.46875 -0.859375 6.726562 -1.097656 6.9375 -1.390625 C 7.144531 -1.691406 7.300781 -2.039062 7.40625 -2.4375 C 7.507812 -2.832031 7.5625 -3.238281 7.5625 -3.65625 C 7.5625 -3.957031 7.53125 -4.253906 7.46875 -4.546875 C 7.40625 -4.835938 7.316406 -5.113281 7.203125 -5.375 C 7.097656 -5.644531 6.960938 -5.890625 6.796875 -6.109375 C 6.628906 -6.328125 6.4375 -6.519531 6.21875 -6.6875 C 6.007812 -6.851562 5.773438 -6.976562 5.515625 -7.0625 C 5.253906 -7.15625 4.972656 -7.203125 4.671875 -7.203125 C 4.398438 -7.203125 4.144531 -7.160156 3.90625 -7.078125 C 3.675781 -6.992188 3.46875 -6.878906 3.28125 -6.734375 C 3.101562 -6.585938 2.941406 -6.410156 2.796875 -6.203125 C 2.648438 -5.992188 2.53125 -5.769531 2.4375 -5.53125 C 2.34375 -5.300781 2.269531 -5.050781 2.21875 -4.78125 C 2.164062 -4.519531 2.140625 -4.257812 2.140625 -4 Z M 2.140625 -4 "/></g></g></g><g fill="#ffffff" fill-opacity="1"><g transform="translate(87.489107, 52.485807)"><g><path d="M 0.28125 0 C 0.257812 0 0.242188 -0.00390625 0.234375 -0.015625 C 0.234375 -0.0234375 0.234375 -0.0351562 0.234375 -0.046875 L 0.234375 -0.265625 C 0.234375 -0.273438 0.234375 -0.285156 0.234375 -0.296875 C 0.242188 -0.304688 0.257812 -0.3125 0.28125 -0.3125 L 0.40625 -0.3125 C 0.476562 -0.3125 0.566406 -0.316406 0.671875 -0.328125 C 0.785156 -0.335938 0.894531 -0.363281 1 -0.40625 C 1.101562 -0.445312 1.1875 -0.507812 1.25 -0.59375 C 1.320312 -0.675781 1.359375 -0.789062 1.359375 -0.9375 L 1.359375 -6.59375 C 1.359375 -6.707031 1.332031 -6.800781 1.28125 -6.875 C 1.238281 -6.957031 1.179688 -7.019531 1.109375 -7.0625 C 1.035156 -7.113281 0.953125 -7.148438 0.859375 -7.171875 C 0.773438 -7.191406 0.695312 -7.203125 0.625 -7.203125 L 0.28125 -7.203125 C 0.257812 -7.203125 0.242188 -7.207031 0.234375 -7.21875 C 0.234375 -7.226562 0.234375 -7.238281 0.234375 -7.25 L 0.234375 -7.46875 C 0.234375 -7.476562 0.234375 -7.488281 0.234375 -7.5 C 0.242188 -7.507812 0.257812 -7.515625 0.28125 -7.515625 L 0.40625 -7.515625 L 2.578125 -7.546875 C 2.785156 -7.554688 3.007812 -7.5625 3.25 -7.5625 C 3.488281 -7.5625 3.710938 -7.5625 3.921875 -7.5625 C 4.140625 -7.5625 4.335938 -7.554688 4.515625 -7.546875 C 4.691406 -7.546875 4.863281 -7.535156 5.03125 -7.515625 C 5.195312 -7.503906 5.363281 -7.484375 5.53125 -7.453125 C 5.695312 -7.429688 5.878906 -7.398438 6.078125 -7.359375 C 6.472656 -7.273438 6.835938 -7.125 7.171875 -6.90625 C 7.515625 -6.6875 7.804688 -6.421875 8.046875 -6.109375 C 8.296875 -5.796875 8.488281 -5.445312 8.625 -5.0625 C 8.769531 -4.6875 8.84375 -4.300781 8.84375 -3.90625 C 8.84375 -3.519531 8.789062 -3.15625 8.6875 -2.8125 C 8.582031 -2.476562 8.429688 -2.164062 8.234375 -1.875 C 8.046875 -1.582031 7.820312 -1.320312 7.5625 -1.09375 C 7.300781 -0.863281 7.015625 -0.664062 6.703125 -0.5 C 6.398438 -0.34375 6.070312 -0.21875 5.71875 -0.125 C 5.363281 -0.0390625 5.003906 0 4.640625 0 Z M 2.875 -0.828125 C 2.875 -0.722656 2.90625 -0.640625 2.96875 -0.578125 C 3.039062 -0.523438 3.128906 -0.484375 3.234375 -0.453125 C 3.347656 -0.429688 3.476562 -0.414062 3.625 -0.40625 C 3.769531 -0.40625 3.921875 -0.40625 4.078125 -0.40625 C 5.128906 -0.40625 5.914062 -0.695312 6.4375 -1.28125 C 6.96875 -1.863281 7.234375 -2.710938 7.234375 -3.828125 C 7.234375 -4.316406 7.171875 -4.765625 7.046875 -5.171875 C 6.929688 -5.578125 6.753906 -5.925781 6.515625 -6.21875 C 6.273438 -6.507812 5.96875 -6.738281 5.59375 -6.90625 C 5.226562 -7.070312 4.796875 -7.15625 4.296875 -7.15625 L 3.015625 -7.15625 C 2.960938 -7.15625 2.925781 -7.140625 2.90625 -7.109375 C 2.882812 -7.085938 2.875 -7.054688 2.875 -7.015625 Z M 2.875 -0.828125 "/></g></g></g><g fill="#ffffff" fill-opacity="1"><g transform="translate(98.930375, 52.485807)"><g><path d="M 0.03125 -0.265625 C 0.03125 -0.273438 0.03125 -0.285156 0.03125 -0.296875 C 0.0390625 -0.304688 0.0546875 -0.3125 0.078125 -0.3125 L 0.203125 -0.3125 C 0.347656 -0.320312 0.5 -0.328125 0.65625 -0.328125 C 0.8125 -0.328125 0.953125 -0.347656 1.078125 -0.390625 C 1.203125 -0.429688 1.304688 -0.5 1.390625 -0.59375 C 1.472656 -0.6875 1.515625 -0.832031 1.515625 -1.03125 L 1.515625 -6.46875 C 1.515625 -6.601562 1.484375 -6.710938 1.421875 -6.796875 C 1.367188 -6.890625 1.296875 -6.960938 1.203125 -7.015625 C 1.109375 -7.066406 1.003906 -7.101562 0.890625 -7.125 C 0.773438 -7.15625 0.65625 -7.179688 0.53125 -7.203125 L 0.421875 -7.203125 C 0.410156 -7.203125 0.398438 -7.207031 0.390625 -7.21875 C 0.390625 -7.226562 0.390625 -7.238281 0.390625 -7.25 L 0.390625 -7.453125 C 0.390625 -7.460938 0.390625 -7.472656 0.390625 -7.484375 C 0.398438 -7.492188 0.410156 -7.5 0.421875 -7.5 L 5.71875 -7.5 C 5.78125 -7.5 5.828125 -7.484375 5.859375 -7.453125 C 5.890625 -7.429688 5.90625 -7.382812 5.90625 -7.3125 L 6.015625 -5.609375 C 6.015625 -5.585938 6 -5.570312 5.96875 -5.5625 C 5.9375 -5.5625 5.90625 -5.5625 5.875 -5.5625 C 5.851562 -5.5625 5.828125 -5.5625 5.796875 -5.5625 C 5.765625 -5.570312 5.742188 -5.582031 5.734375 -5.59375 C 5.710938 -5.632812 5.695312 -5.6875 5.6875 -5.75 C 5.675781 -5.820312 5.660156 -5.898438 5.640625 -5.984375 C 5.628906 -6.066406 5.613281 -6.15625 5.59375 -6.25 C 5.570312 -6.34375 5.535156 -6.425781 5.484375 -6.5 C 5.441406 -6.582031 5.378906 -6.648438 5.296875 -6.703125 C 5.222656 -6.765625 5.125 -6.804688 5 -6.828125 L 3.09375 -6.828125 C 3.050781 -6.828125 3.03125 -6.804688 3.03125 -6.765625 L 3.03125 -4.234375 C 3.03125 -4.191406 3.046875 -4.171875 3.078125 -4.171875 L 4.609375 -4.171875 C 4.691406 -4.171875 4.773438 -4.179688 4.859375 -4.203125 C 4.953125 -4.234375 5.03125 -4.273438 5.09375 -4.328125 C 5.164062 -4.390625 5.21875 -4.472656 5.25 -4.578125 C 5.289062 -4.691406 5.3125 -4.832031 5.3125 -5 C 5.3125 -5.03125 5.328125 -5.046875 5.359375 -5.046875 L 5.5625 -5.046875 C 5.59375 -5.046875 5.609375 -5.03125 5.609375 -5 L 5.609375 -2.5625 C 5.609375 -2.550781 5.601562 -2.539062 5.59375 -2.53125 C 5.582031 -2.53125 5.570312 -2.53125 5.5625 -2.53125 L 5.359375 -2.53125 C 5.335938 -2.53125 5.320312 -2.535156 5.3125 -2.546875 C 5.3125 -2.554688 5.3125 -2.5625 5.3125 -2.5625 C 5.3125 -2.757812 5.289062 -2.921875 5.25 -3.046875 C 5.21875 -3.171875 5.164062 -3.265625 5.09375 -3.328125 C 5.03125 -3.398438 4.953125 -3.445312 4.859375 -3.46875 C 4.773438 -3.5 4.6875 -3.515625 4.59375 -3.515625 L 3.078125 -3.515625 C 3.046875 -3.515625 3.03125 -3.492188 3.03125 -3.453125 L 3.03125 -1.125 C 3.03125 -1.03125 3.046875 -0.953125 3.078125 -0.890625 C 3.109375 -0.828125 3.148438 -0.78125 3.203125 -0.75 C 3.265625 -0.71875 3.328125 -0.695312 3.390625 -0.6875 C 3.460938 -0.675781 3.539062 -0.671875 3.625 -0.671875 L 5.078125 -0.671875 C 5.273438 -0.671875 5.441406 -0.71875 5.578125 -0.8125 C 5.722656 -0.90625 5.835938 -1.015625 5.921875 -1.140625 C 6.003906 -1.273438 6.066406 -1.414062 6.109375 -1.5625 C 6.148438 -1.707031 6.175781 -1.832031 6.1875 -1.9375 C 6.195312 -1.988281 6.21875 -2.023438 6.25 -2.046875 C 6.289062 -2.078125 6.335938 -2.09375 6.390625 -2.09375 C 6.410156 -2.09375 6.429688 -2.082031 6.453125 -2.0625 C 6.484375 -2.050781 6.5 -2.035156 6.5 -2.015625 L 6.3125 -0.078125 C 6.3125 -0.0546875 6.300781 -0.0351562 6.28125 -0.015625 C 6.269531 -0.00390625 6.257812 0 6.25 0 L 0.078125 0 C 0.0546875 0 0.0390625 -0.00390625 0.03125 -0.015625 C 0.03125 -0.0234375 0.03125 -0.0351562 0.03125 -0.046875 Z M 0.03125 -0.265625 "/></g></g></g><g fill="#ffffff" fill-opacity="1"><g transform="translate(108.005322, 52.485807)"><g><path d="M 0.53125 0 C 0.5 0 0.484375 -0.015625 0.484375 -0.046875 L 0.484375 -0.28125 C 0.484375 -0.28125 0.484375 -0.285156 0.484375 -0.296875 C 0.492188 -0.304688 0.507812 -0.3125 0.53125 -0.3125 C 0.65625 -0.3125 0.769531 -0.328125 0.875 -0.359375 C 0.976562 -0.398438 1.066406 -0.453125 1.140625 -0.515625 C 1.222656 -0.578125 1.285156 -0.648438 1.328125 -0.734375 C 1.378906 -0.816406 1.40625 -0.910156 1.40625 -1.015625 L 1.40625 -6.40625 C 1.40625 -6.582031 1.382812 -6.722656 1.34375 -6.828125 C 1.3125 -6.929688 1.257812 -7.007812 1.1875 -7.0625 C 1.113281 -7.113281 1.023438 -7.144531 0.921875 -7.15625 C 0.816406 -7.164062 0.695312 -7.171875 0.5625 -7.171875 L 0.328125 -7.171875 C 0.285156 -7.171875 0.253906 -7.191406 0.234375 -7.234375 C 0.222656 -7.285156 0.21875 -7.328125 0.21875 -7.359375 C 0.21875 -7.367188 0.21875 -7.390625 0.21875 -7.421875 C 0.226562 -7.460938 0.25 -7.488281 0.28125 -7.5 C 0.28125 -7.5 0.289062 -7.5 0.3125 -7.5 C 0.332031 -7.5 0.367188 -7.5 0.421875 -7.5 C 0.472656 -7.5 0.539062 -7.5 0.625 -7.5 C 0.707031 -7.507812 0.816406 -7.515625 0.953125 -7.515625 C 1.140625 -7.515625 1.34375 -7.519531 1.5625 -7.53125 C 1.789062 -7.539062 2.015625 -7.546875 2.234375 -7.546875 C 2.460938 -7.554688 2.6875 -7.5625 2.90625 -7.5625 C 3.132812 -7.570312 3.347656 -7.578125 3.546875 -7.578125 L 4.296875 -7.578125 C 4.578125 -7.578125 4.851562 -7.53125 5.125 -7.4375 C 5.394531 -7.34375 5.632812 -7.203125 5.84375 -7.015625 C 6.050781 -6.828125 6.21875 -6.59375 6.34375 -6.3125 C 6.46875 -6.039062 6.53125 -5.722656 6.53125 -5.359375 C 6.53125 -5.128906 6.492188 -4.910156 6.421875 -4.703125 C 6.359375 -4.492188 6.269531 -4.300781 6.15625 -4.125 C 6.039062 -3.957031 5.90625 -3.800781 5.75 -3.65625 C 5.601562 -3.519531 5.445312 -3.40625 5.28125 -3.3125 C 5.125 -3.21875 4.957031 -3.144531 4.78125 -3.09375 C 4.632812 -3.050781 4.492188 -3.03125 4.359375 -3.03125 C 4.335938 -3.03125 4.320312 -3.03125 4.3125 -3.03125 L 3.03125 -3.09375 C 3.03125 -3.09375 3.015625 -3.09375 2.984375 -3.09375 C 2.960938 -3.09375 2.945312 -3.09375 2.9375 -3.09375 C 2.925781 -3.082031 2.921875 -3.070312 2.921875 -3.0625 C 2.921875 -3.0625 2.921875 -3.050781 2.921875 -3.03125 L 2.921875 -1.03125 C 2.921875 -0.882812 2.957031 -0.765625 3.03125 -0.671875 C 3.101562 -0.585938 3.203125 -0.519531 3.328125 -0.46875 C 3.453125 -0.414062 3.585938 -0.375 3.734375 -0.34375 C 3.890625 -0.320312 4.039062 -0.3125 4.1875 -0.3125 C 4.207031 -0.3125 4.21875 -0.304688 4.21875 -0.296875 C 4.226562 -0.285156 4.234375 -0.28125 4.234375 -0.28125 L 4.234375 -0.046875 C 4.234375 -0.0351562 4.226562 -0.0234375 4.21875 -0.015625 C 4.21875 -0.00390625 4.207031 0 4.1875 0 Z M 2.921875 -3.703125 C 2.929688 -3.671875 2.941406 -3.644531 2.953125 -3.625 C 2.960938 -3.601562 2.988281 -3.585938 3.03125 -3.578125 C 3.039062 -3.578125 3.0625 -3.578125 3.09375 -3.578125 C 3.132812 -3.578125 3.179688 -3.570312 3.234375 -3.5625 C 3.285156 -3.5625 3.335938 -3.554688 3.390625 -3.546875 C 3.453125 -3.546875 3.507812 -3.546875 3.5625 -3.546875 C 3.800781 -3.546875 4.007812 -3.59375 4.1875 -3.6875 C 4.375 -3.789062 4.523438 -3.925781 4.640625 -4.09375 C 4.753906 -4.269531 4.84375 -4.472656 4.90625 -4.703125 C 4.96875 -4.941406 5 -5.203125 5 -5.484375 C 5 -6.066406 4.878906 -6.492188 4.640625 -6.765625 C 4.410156 -7.046875 4.066406 -7.1875 3.609375 -7.1875 C 3.554688 -7.1875 3.507812 -7.179688 3.46875 -7.171875 C 3.425781 -7.171875 3.382812 -7.171875 3.34375 -7.171875 C 3.300781 -7.171875 3.253906 -7.171875 3.203125 -7.171875 C 3.160156 -7.171875 3.109375 -7.164062 3.046875 -7.15625 C 3.023438 -7.15625 3 -7.148438 2.96875 -7.140625 C 2.9375 -7.140625 2.921875 -7.117188 2.921875 -7.078125 Z M 2.921875 -3.703125 "/></g></g></g><g fill="#ffffff" fill-opacity="1"><g transform="translate(117.037724, 52.485807)"><g><path d="M 0.03125 -0.25 C 0.03125 -0.28125 0.0390625 -0.296875 0.0625 -0.296875 C 0.132812 -0.296875 0.210938 -0.300781 0.296875 -0.3125 C 0.390625 -0.332031 0.484375 -0.367188 0.578125 -0.421875 C 0.671875 -0.472656 0.757812 -0.546875 0.84375 -0.640625 C 0.9375 -0.742188 1.015625 -0.882812 1.078125 -1.0625 L 3.21875 -7.265625 C 3.21875 -7.273438 3.21875 -7.285156 3.21875 -7.296875 C 3.21875 -7.316406 3.207031 -7.34375 3.1875 -7.375 C 3.164062 -7.414062 3.15625 -7.445312 3.15625 -7.46875 C 3.15625 -7.488281 3.164062 -7.5 3.1875 -7.5 L 4.734375 -7.5 C 4.734375 -7.5 4.738281 -7.492188 4.75 -7.484375 C 4.769531 -7.484375 4.78125 -7.472656 4.78125 -7.453125 L 7.03125 -1.140625 C 7.070312 -1.046875 7.109375 -0.960938 7.140625 -0.890625 C 7.171875 -0.816406 7.207031 -0.75 7.25 -0.6875 C 7.289062 -0.632812 7.34375 -0.585938 7.40625 -0.546875 C 7.476562 -0.503906 7.566406 -0.460938 7.671875 -0.421875 C 7.722656 -0.390625 7.789062 -0.359375 7.875 -0.328125 C 7.96875 -0.304688 8.050781 -0.296875 8.125 -0.296875 C 8.144531 -0.296875 8.15625 -0.289062 8.15625 -0.28125 C 8.164062 -0.269531 8.171875 -0.257812 8.171875 -0.25 L 8.171875 -0.046875 C 8.171875 -0.0351562 8.164062 -0.0234375 8.15625 -0.015625 C 8.15625 -0.00390625 8.144531 0 8.125 0 L 4.390625 0 C 4.367188 0 4.351562 -0.00390625 4.34375 -0.015625 C 4.34375 -0.0234375 4.34375 -0.0351562 4.34375 -0.046875 L 4.34375 -0.25 C 4.34375 -0.257812 4.34375 -0.269531 4.34375 -0.28125 C 4.351562 -0.289062 4.367188 -0.296875 4.390625 -0.296875 C 4.398438 -0.296875 4.410156 -0.296875 4.421875 -0.296875 C 4.441406 -0.296875 4.457031 -0.296875 4.46875 -0.296875 C 4.507812 -0.296875 4.566406 -0.296875 4.640625 -0.296875 C 4.710938 -0.304688 4.789062 -0.316406 4.875 -0.328125 C 4.957031 -0.335938 5.039062 -0.351562 5.125 -0.375 C 5.21875 -0.394531 5.296875 -0.421875 5.359375 -0.453125 C 5.429688 -0.492188 5.488281 -0.539062 5.53125 -0.59375 C 5.582031 -0.65625 5.609375 -0.734375 5.609375 -0.828125 C 5.609375 -0.847656 5.601562 -0.875 5.59375 -0.90625 L 4.90625 -2.8125 C 4.894531 -2.820312 4.882812 -2.835938 4.875 -2.859375 C 4.875 -2.890625 4.863281 -2.914062 4.84375 -2.9375 C 4.820312 -2.96875 4.796875 -2.992188 4.765625 -3.015625 C 4.734375 -3.035156 4.695312 -3.046875 4.65625 -3.046875 L 2.734375 -3.046875 C 2.691406 -3.046875 2.65625 -3.035156 2.625 -3.015625 C 2.59375 -2.992188 2.566406 -2.96875 2.546875 -2.9375 C 2.523438 -2.914062 2.503906 -2.890625 2.484375 -2.859375 C 2.472656 -2.835938 2.46875 -2.828125 2.46875 -2.828125 C 2.351562 -2.492188 2.253906 -2.210938 2.171875 -1.984375 C 2.097656 -1.753906 2.035156 -1.566406 1.984375 -1.421875 C 1.941406 -1.273438 1.90625 -1.160156 1.875 -1.078125 C 1.84375 -0.992188 1.820312 -0.929688 1.8125 -0.890625 C 1.800781 -0.859375 1.789062 -0.835938 1.78125 -0.828125 C 1.78125 -0.816406 1.78125 -0.8125 1.78125 -0.8125 C 1.78125 -0.800781 1.78125 -0.789062 1.78125 -0.78125 C 1.789062 -0.769531 1.796875 -0.757812 1.796875 -0.75 C 1.828125 -0.65625 1.878906 -0.578125 1.953125 -0.515625 C 2.035156 -0.460938 2.125 -0.414062 2.21875 -0.375 C 2.320312 -0.34375 2.425781 -0.320312 2.53125 -0.3125 C 2.632812 -0.300781 2.726562 -0.296875 2.8125 -0.296875 L 2.953125 -0.296875 C 2.960938 -0.296875 2.96875 -0.289062 2.96875 -0.28125 C 2.976562 -0.269531 2.984375 -0.257812 2.984375 -0.25 L 2.984375 -0.046875 C 2.984375 -0.0351562 2.976562 -0.0234375 2.96875 -0.015625 C 2.96875 -0.00390625 2.960938 0 2.953125 0 L 0.0625 0 C 0.0390625 0 0.03125 -0.015625 0.03125 -0.046875 Z M 2.8125 -3.8125 C 2.800781 -3.789062 2.796875 -3.769531 2.796875 -3.75 C 2.796875 -3.738281 2.796875 -3.722656 2.796875 -3.703125 C 2.796875 -3.679688 2.800781 -3.664062 2.8125 -3.65625 C 2.820312 -3.644531 2.84375 -3.640625 2.875 -3.640625 L 4.46875 -3.640625 C 4.507812 -3.640625 4.535156 -3.644531 4.546875 -3.65625 C 4.554688 -3.675781 4.5625 -3.695312 4.5625 -3.71875 C 4.5625 -3.738281 4.554688 -3.753906 4.546875 -3.765625 C 4.546875 -3.773438 4.546875 -3.789062 4.546875 -3.8125 L 3.828125 -5.75 C 3.816406 -5.800781 3.789062 -5.835938 3.75 -5.859375 C 3.71875 -5.878906 3.6875 -5.890625 3.65625 -5.890625 C 3.625 -5.890625 3.59375 -5.875 3.5625 -5.84375 C 3.53125 -5.820312 3.503906 -5.789062 3.484375 -5.75 Z M 2.8125 -3.8125 "/></g></g></g><g fill="#ffffff" fill-opacity="1"><g transform="translate(127.346349, 52.485807)"><g><path d="M 3.234375 -6.6875 C 3.234375 -6.757812 3.21875 -6.800781 3.1875 -6.8125 C 3.15625 -6.820312 3.117188 -6.828125 3.078125 -6.828125 L 1.28125 -6.828125 C 1.144531 -6.804688 1.039062 -6.753906 0.96875 -6.671875 C 0.894531 -6.597656 0.835938 -6.507812 0.796875 -6.40625 C 0.753906 -6.300781 0.722656 -6.1875 0.703125 -6.0625 C 0.679688 -5.945312 0.65625 -5.835938 0.625 -5.734375 C 0.613281 -5.703125 0.601562 -5.660156 0.59375 -5.609375 C 0.59375 -5.566406 0.585938 -5.546875 0.578125 -5.546875 C 0.578125 -5.535156 0.566406 -5.53125 0.546875 -5.53125 L 0.375 -5.53125 C 0.351562 -5.53125 0.34375 -5.535156 0.34375 -5.546875 L 0.34375 -5.71875 L 0.53125 -7.546875 C 0.539062 -7.578125 0.554688 -7.609375 0.578125 -7.640625 C 0.609375 -7.679688 0.648438 -7.703125 0.703125 -7.703125 C 0.722656 -7.703125 0.742188 -7.691406 0.765625 -7.671875 C 0.796875 -7.660156 0.820312 -7.644531 0.84375 -7.625 C 0.863281 -7.613281 0.882812 -7.597656 0.90625 -7.578125 C 0.925781 -7.554688 0.945312 -7.546875 0.96875 -7.546875 C 1.007812 -7.523438 1.046875 -7.507812 1.078125 -7.5 C 1.117188 -7.5 1.160156 -7.5 1.203125 -7.5 L 6.78125 -7.5 C 6.820312 -7.5 6.859375 -7.5 6.890625 -7.5 C 6.929688 -7.507812 6.976562 -7.523438 7.03125 -7.546875 C 7.050781 -7.546875 7.066406 -7.554688 7.078125 -7.578125 C 7.097656 -7.597656 7.117188 -7.613281 7.140625 -7.625 C 7.160156 -7.644531 7.179688 -7.660156 7.203125 -7.671875 C 7.234375 -7.691406 7.257812 -7.703125 7.28125 -7.703125 C 7.332031 -7.703125 7.367188 -7.679688 7.390625 -7.640625 C 7.421875 -7.609375 7.441406 -7.578125 7.453125 -7.546875 L 7.640625 -5.71875 L 7.640625 -5.546875 C 7.640625 -5.535156 7.628906 -5.53125 7.609375 -5.53125 L 7.4375 -5.53125 C 7.414062 -5.53125 7.40625 -5.535156 7.40625 -5.546875 C 7.394531 -5.546875 7.382812 -5.566406 7.375 -5.609375 C 7.375 -5.660156 7.367188 -5.703125 7.359375 -5.734375 C 7.335938 -5.835938 7.316406 -5.945312 7.296875 -6.0625 C 7.273438 -6.1875 7.238281 -6.300781 7.1875 -6.40625 C 7.144531 -6.507812 7.085938 -6.597656 7.015625 -6.671875 C 6.941406 -6.753906 6.835938 -6.804688 6.703125 -6.828125 L 4.90625 -6.828125 C 4.863281 -6.828125 4.828125 -6.820312 4.796875 -6.8125 C 4.765625 -6.800781 4.75 -6.757812 4.75 -6.6875 L 4.75 -1.03125 C 4.75 -0.925781 4.773438 -0.832031 4.828125 -0.75 C 4.878906 -0.664062 4.945312 -0.59375 5.03125 -0.53125 C 5.125 -0.46875 5.234375 -0.414062 5.359375 -0.375 C 5.484375 -0.332031 5.613281 -0.304688 5.75 -0.296875 C 5.789062 -0.296875 5.84375 -0.296875 5.90625 -0.296875 C 5.96875 -0.296875 6.019531 -0.296875 6.0625 -0.296875 C 6.070312 -0.296875 6.078125 -0.289062 6.078125 -0.28125 C 6.085938 -0.269531 6.09375 -0.257812 6.09375 -0.25 L 6.09375 -0.046875 C 6.09375 -0.0351562 6.085938 -0.0234375 6.078125 -0.015625 C 6.078125 -0.00390625 6.070312 0 6.0625 0 L 1.921875 0 C 1.898438 0 1.882812 -0.00390625 1.875 -0.015625 C 1.875 -0.0234375 1.875 -0.0351562 1.875 -0.046875 L 1.875 -0.25 C 1.875 -0.257812 1.875 -0.269531 1.875 -0.28125 C 1.882812 -0.289062 1.898438 -0.296875 1.921875 -0.296875 C 1.960938 -0.296875 2.015625 -0.296875 2.078125 -0.296875 C 2.140625 -0.296875 2.191406 -0.296875 2.234375 -0.296875 C 2.367188 -0.304688 2.492188 -0.332031 2.609375 -0.375 C 2.734375 -0.414062 2.84375 -0.46875 2.9375 -0.53125 C 3.03125 -0.59375 3.101562 -0.664062 3.15625 -0.75 C 3.207031 -0.832031 3.234375 -0.925781 3.234375 -1.03125 Z M 3.234375 -6.6875 "/></g></g></g><g fill="#ffffff" fill-opacity="1"><g transform="translate(137.447589, 52.485807)"><g><path d="M 0.359375 0 C 0.335938 0 0.320312 -0.00390625 0.3125 -0.015625 C 0.3125 -0.0234375 0.3125 -0.0351562 0.3125 -0.046875 L 0.3125 -0.328125 C 0.3125 -0.335938 0.3125 -0.347656 0.3125 -0.359375 C 0.320312 -0.367188 0.335938 -0.375 0.359375 -0.375 C 0.472656 -0.375 0.582031 -0.378906 0.6875 -0.390625 C 0.800781 -0.410156 0.90625 -0.445312 1 -0.5 C 1.09375 -0.550781 1.164062 -0.625 1.21875 -0.71875 C 1.28125 -0.820312 1.3125 -0.957031 1.3125 -1.125 L 1.3125 -6.46875 C 1.3125 -6.582031 1.289062 -6.679688 1.25 -6.765625 C 1.21875 -6.847656 1.164062 -6.914062 1.09375 -6.96875 C 1.019531 -7.019531 0.929688 -7.054688 0.828125 -7.078125 C 0.734375 -7.097656 0.625 -7.113281 0.5 -7.125 C 0.476562 -7.125 0.46875 -7.140625 0.46875 -7.171875 L 0.46875 -7.453125 C 0.46875 -7.484375 0.476562 -7.5 0.5 -7.5 L 3.640625 -7.5 C 3.660156 -7.5 3.671875 -7.492188 3.671875 -7.484375 C 3.679688 -7.472656 3.6875 -7.460938 3.6875 -7.453125 L 3.6875 -7.171875 C 3.6875 -7.148438 3.671875 -7.140625 3.640625 -7.140625 C 3.535156 -7.140625 3.429688 -7.128906 3.328125 -7.109375 C 3.234375 -7.085938 3.148438 -7.050781 3.078125 -7 C 3.003906 -6.945312 2.941406 -6.867188 2.890625 -6.765625 C 2.847656 -6.671875 2.828125 -6.546875 2.828125 -6.390625 L 2.828125 -4.203125 C 2.828125 -4.160156 2.832031 -4.132812 2.84375 -4.125 C 2.851562 -4.113281 2.878906 -4.109375 2.921875 -4.109375 L 6.625 -4.109375 C 6.65625 -4.109375 6.675781 -4.113281 6.6875 -4.125 C 6.695312 -4.132812 6.703125 -4.160156 6.703125 -4.203125 L 6.703125 -6.46875 C 6.703125 -6.59375 6.664062 -6.695312 6.59375 -6.78125 C 6.519531 -6.863281 6.421875 -6.925781 6.296875 -6.96875 C 6.179688 -7.019531 6.050781 -7.054688 5.90625 -7.078125 C 5.769531 -7.097656 5.644531 -7.113281 5.53125 -7.125 C 5.5 -7.125 5.484375 -7.140625 5.484375 -7.171875 L 5.484375 -7.453125 C 5.484375 -7.484375 5.5 -7.5 5.53125 -7.5 L 9.078125 -7.5 C 9.085938 -7.5 9.09375 -7.492188 9.09375 -7.484375 C 9.101562 -7.472656 9.109375 -7.460938 9.109375 -7.453125 L 9.109375 -7.171875 C 9.109375 -7.148438 9.097656 -7.140625 9.078125 -7.140625 C 8.960938 -7.140625 8.851562 -7.128906 8.75 -7.109375 C 8.65625 -7.085938 8.566406 -7.050781 8.484375 -7 C 8.410156 -6.945312 8.347656 -6.867188 8.296875 -6.765625 C 8.242188 -6.671875 8.21875 -6.546875 8.21875 -6.390625 L 8.21875 -1.125 C 8.21875 -1.03125 8.234375 -0.945312 8.265625 -0.875 C 8.296875 -0.800781 8.335938 -0.726562 8.390625 -0.65625 C 8.441406 -0.582031 8.53125 -0.519531 8.65625 -0.46875 C 8.789062 -0.414062 8.976562 -0.382812 9.21875 -0.375 C 9.25 -0.375 9.265625 -0.359375 9.265625 -0.328125 L 9.265625 -0.046875 C 9.265625 -0.015625 9.25 0 9.21875 0 L 5.359375 0 C 5.335938 0 5.320312 -0.00390625 5.3125 -0.015625 C 5.3125 -0.0234375 5.3125 -0.0351562 5.3125 -0.046875 L 5.3125 -0.328125 C 5.3125 -0.335938 5.3125 -0.347656 5.3125 -0.359375 C 5.320312 -0.367188 5.335938 -0.375 5.359375 -0.375 C 5.460938 -0.375 5.59375 -0.378906 5.75 -0.390625 C 5.90625 -0.410156 6.050781 -0.441406 6.1875 -0.484375 C 6.332031 -0.535156 6.453125 -0.601562 6.546875 -0.6875 C 6.648438 -0.78125 6.703125 -0.90625 6.703125 -1.0625 L 6.703125 -3.359375 C 6.703125 -3.390625 6.695312 -3.410156 6.6875 -3.421875 C 6.675781 -3.441406 6.65625 -3.453125 6.625 -3.453125 L 2.921875 -3.453125 C 2.878906 -3.453125 2.851562 -3.441406 2.84375 -3.421875 C 2.832031 -3.410156 2.828125 -3.390625 2.828125 -3.359375 L 2.828125 -1.015625 C 2.828125 -0.890625 2.851562 -0.785156 2.90625 -0.703125 C 2.957031 -0.617188 3.023438 -0.550781 3.109375 -0.5 C 3.203125 -0.457031 3.304688 -0.425781 3.421875 -0.40625 C 3.535156 -0.382812 3.648438 -0.375 3.765625 -0.375 C 3.785156 -0.375 3.796875 -0.367188 3.796875 -0.359375 C 3.804688 -0.347656 3.8125 -0.335938 3.8125 -0.328125 L 3.8125 -0.046875 C 3.8125 -0.0351562 3.804688 -0.0234375 3.796875 -0.015625 C 3.796875 -0.00390625 3.789062 0 3.78125 0 Z M 0.359375 0 "/></g></g></g><g fill="#ffffff" fill-opacity="1"><g transform="translate(97.267257, 42.376893)"><g><path d="M 13.820312 0 L 18.957031 0 L 13.695312 -9.351562 C 20.351562 -11.285156 19.558594 -22.664062 11.476562 -22.664062 L 2.535156 -22.664062 L 2.535156 0 L 7.070312 0 L 7.070312 -8.652344 L 9.257812 -8.652344 Z M 7.070312 -13.058594 L 7.070312 -18.132812 L 11.0625 -18.132812 C 14.136719 -18.132812 14.136719 -13.058594 11.0625 -13.058594 Z M 7.070312 -13.058594 "/></g></g></g><g fill="#ffffff" fill-opacity="1"><g transform="translate(116.69685, 42.376893)"><g><path d="M 10.808594 0 L 10.808594 -18.132812 L 16.453125 -18.132812 L 16.453125 -22.632812 L 0.632812 -22.632812 L 0.632812 -18.132812 L 6.277344 -18.132812 L 6.277344 0 Z M 10.808594 0 "/></g></g></g><g fill="#ffffff" fill-opacity="1"><g transform="translate(134.034513, 42.376893)"><g><path d="M 18.386719 0 L 18.386719 -22.664062 L 13.851562 -22.664062 L 13.851562 -13.597656 L 7.070312 -13.597656 L 7.070312 -22.664062 L 2.535156 -22.664062 L 2.535156 0 L 7.070312 0 L 7.070312 -9.066406 L 13.851562 -9.066406 L 13.851562 0 Z M 18.386719 0 "/></g></g></g><g fill="#13e8af" fill-opacity="1"><g transform="translate(78.000889, 42.376893)"><g><path d="M 0.507812 0 L 5.640625 0 L 6.53125 -2.441406 L 14.042969 -2.441406 L 14.960938 0 L 20.066406 0 L 10.523438 -23.488281 L 10.046875 -23.488281 Z M 8.179688 -6.6875 L 10.300781 -12.585938 L 12.363281 -6.6875 Z M 8.179688 -6.6875 "/></g></g></g><g clip-path="url(#e4631952f4)"><g fill="#9400d3" fill-opacity="1"><g transform="translate(83.378621, 86.598312)"><g><path d="M 5.421875 -1.71875 L 2.046875 -1.71875 L 1.4375 0 L 0.359375 0 L 3.15625 -7.6875 L 4.328125 -7.6875 L 7.109375 0 L 6.046875 0 Z M 5.140625 -2.546875 L 3.734375 -6.453125 L 2.34375 -2.546875 Z M 5.140625 -2.546875 "/></g></g></g></g></svg>